<?xml version="1.0" encoding="UTF-8" standalone="no"?><!DOCTYPE svg PUBLIC "-//W3C//DTD SVG 1.1//EN" "http://www.w3.org/Graphics/SVG/1.1/DTD/svg11.dtd"><svg width="100%" height="100%" viewBox="0 0 380 85" version="1.1" xmlns="http://www.w3.org/2000/svg" xmlns:xlink="http://www.w3.org/1999/xlink" xml:space="preserve" xmlns:serif="http://www.serif.com/" style="fill-rule:evenodd;clip-rule:evenodd;stroke-linejoin:round;stroke-miterlimit:2;"><g id="Ebene-1" serif:id="Ebene 1"><path d="M52.141,58.855l13.06,-0l-0.012,-45.755l-13.038,0l0.002,39.203l-6.917,-0.004c-3.382,-0 -6.123,-2.755 -6.123,-6.154l0.006,-33.045l-13.037,0l-0.004,39.203l-0.002,-0l-6.917,-0.004c-3.382,-0 -6.122,-2.755 -6.122,-6.154l0.004,-0.854l-0.002,-32.195l-13.037,0l0,18.732l-0.002,4.133c-0,12.639 10.193,22.888 22.768,22.888l16.341,0.003l-0,-2.095c2.517,1.329 5.383,2.082 8.424,2.082l4.608,0.016Z" style="fill:#403f41;fill-rule:nonzero;"/><path d="M97.657,58.861c7.202,-0 13.042,-5.871 13.042,-13.112l0.016,-19.532c0,-7.241 -5.84,-13.111 -13.041,-13.111l-13.036,0c-7.204,0 -13.044,5.87 -13.044,13.111l-0.01,19.517c0,7.24 5.839,13.111 13.042,13.111l13.031,0.016Zm0.03,-13.127c-0,3.623 -2.922,6.561 -6.525,6.561c-3.604,-0 -6.526,-2.938 -6.526,-6.561l0.015,-19.529c0,-3.617 2.917,-6.55 6.515,-6.55c3.598,0 6.515,2.933 6.515,6.55l0.006,19.529Z" style="fill:#403f41;fill-rule:nonzero;"/><path d="M130.157,52.299l6.526,-0l0,6.555l-19.562,-0l0.001,-45.754l13.038,0.004l-0.003,39.195Z" style="fill:#403f41;fill-rule:nonzero;"/><path d="M143.078,19.647l-6.396,0l0,-6.535l6.387,0c-0,-7.241 5.84,-13.112 13.042,-13.112l12.921,0.001l-0,6.541l-6.406,0c-3.597,0 -6.513,2.933 -6.513,6.549l6.523,0l0,6.556l-6.522,0l0,39.207l-13.036,-0l-0,-39.207Z" style="fill:#403f41;fill-rule:nonzero;"/><path d="M201.635,13.099l-0,13.083l-13.061,-0.017c-3.597,0 -6.514,2.933 -6.514,6.55l0.011,26.139l-13.039,-0l-0,-45.755l13.016,0l0,13.105c0,-7.242 5.839,-13.113 13.044,-13.113l6.543,0.008Z" style="fill:#403f41;fill-rule:nonzero;"/><path d="M208.155,45.734c0,7.24 5.84,13.111 13.042,13.111l6.531,0.001c3.597,-0 6.513,-2.937 6.513,-6.56l-0.002,6.569l13.04,-0l0,-45.755l-13.04,0l-0.004,32.634c-0,3.623 -2.916,6.561 -6.513,6.561c-3.598,-0 -6.514,-2.938 -6.514,-6.561l0.001,-32.634l-13.041,0l-0.012,32.634l-0.001,0Z" style="fill:#403f41;fill-rule:nonzero;"/><path d="M266.844,13.102l-13.059,0l0.012,45.754l13.035,-0l-0,-39.202l6.917,0.005c3.381,-0 6.122,2.755 6.122,6.153l-0.006,33.044l13.037,-0l0.005,-39.202l0.001,0l6.918,0.005c3.381,-0 6.123,2.755 6.123,6.153l-0.004,0.854l0.001,32.195l13.037,-0l-0,-18.732l0.002,-4.133c-0,-12.64 -10.194,-22.888 -22.768,-22.888l-16.34,-0.003l0,2.095c-2.517,-1.33 -5.384,-2.082 -8.425,-2.082l-4.608,-0.016Z" style="fill:#403f41;fill-rule:nonzero;"/><path d="M122.581,75.523c0.015,0.146 -0.018,-1.366 -1.272,-1.357c-1.136,0.01 -1.43,0.708 -1.424,1.363c-0,-0 -0.03,0.47 0.397,0.95c0.427,0.482 2.848,3.217 2.848,3.217c-0,0 0.788,0.802 0.788,1.909l-0,0.683c-0,0.244 -0.002,1.106 -0.788,1.897c-0.715,0.718 -1.488,0.803 -1.896,0.803l-1.349,-0c0.002,-0 -1.272,0.064 -2.01,-0.679c-0.597,-0.597 -0.674,-1.429 -0.674,-2.021l1.348,0c-0,0 -0.143,0.669 0.41,1.058c0.354,0.25 0.706,0.286 0.926,0.286c0.219,-0 0.793,-0.018 1.033,-0.349c0.225,-0.311 0.316,-0.53 0.316,-1.013c0,-0.398 -0.175,-0.701 -0.397,-0.951c-0.222,-0.25 -2.85,-3.206 -2.85,-3.206c-0,-0 -0.786,-0.768 -0.786,-1.905l-0,-0.685c-0,-0 -0.1,-0.933 0.786,-1.901c0.776,-0.847 1.898,-0.798 1.898,-0.798l1.349,-0c1.521,-0 2.591,0.766 2.684,2.699l-1.337,-0Z" style="fill:#403f41;fill-rule:nonzero;"/><path d="M138.713,84.989l-1.347,-0l0,-12.164l0.61,-0l7.455,6.752l-0,-6.752l1.35,-0l-0,12.164l-0.618,-0l-7.45,-6.756l-0,6.756Z" style="fill:#403f41;fill-rule:nonzero;"/><path d="M240.804,84.989l-1.348,-0l-0,-12.164l0.61,-0l7.457,6.752l-0,-6.752l1.348,-0l0,12.164l-0.619,-0l-7.448,-6.756l0,6.756Z" style="fill:#403f41;fill-rule:nonzero;"/><rect x="149.441" y="72.825" width="2.691" height="12.164" style="fill:#403f41;"/><path d="M153.523,72.825l8.067,-0l-0,1.354l-2.685,-0l0,10.81l-2.698,-0l0,-10.81l-2.684,-0l-0,-1.354Z" style="fill:#403f41;fill-rule:nonzero;"/><path d="M165.623,78.233l2.697,0l-0,-2.702c-0,-0.748 -0.604,-1.354 -1.348,-1.354c-0.745,-0 -1.349,0.606 -1.349,1.354l0,2.702Zm0,-5.408l2.697,-0c0.17,-0.006 1.066,-0.033 1.893,0.798c0.886,0.891 0.791,1.898 0.791,1.901l0,9.465l-2.684,-0l-0,-5.412l-2.697,0l0,5.412l-2.684,-0l-0,-9.465c-0,-0 -0.073,-1.037 0.791,-1.905c0.864,-0.869 1.893,-0.794 1.893,-0.794" style="fill:#403f41;fill-rule:nonzero;"/><path d="M313.593,78.233l2.695,0l0,-2.702c0,-0.748 -0.602,-1.354 -1.347,-1.354c-0.746,-0 -1.348,0.606 -1.348,1.354l-0,2.702Zm-0,-5.408l2.695,-0c0.171,-0.006 1.065,-0.033 1.894,0.798c0.887,0.891 0.791,1.898 0.791,1.901l-0,9.465l-2.684,-0l0,-5.412l-2.696,0l-0,5.412l-2.686,-0l-0,-9.465c-0,-0 -0.072,-1.037 0.79,-1.905c0.865,-0.869 1.896,-0.794 1.896,-0.794" style="fill:#403f41;fill-rule:nonzero;"/><path d="M129.297,78.241l2.697,0l-0,-2.702c-0,-0.748 -0.603,-1.354 -1.349,-1.354c-0.744,-0 -1.348,0.606 -1.348,1.354l0,2.702Zm0.002,-5.416l2.697,-0c0.17,-0.006 1.066,-0.033 1.892,0.798c0.887,0.891 0.791,1.898 0.791,1.901l0,9.465l-2.683,-0l-0,-5.412l-2.697,0l0,5.412l-2.684,-0l-0,-9.465c-0,-0 -0.074,-1.036 0.791,-1.905c0.864,-0.869 1.893,-0.794 1.893,-0.794" style="fill:#403f41;fill-rule:nonzero;"/><path d="M179.332,78.83c1.834,0 2.432,-1.685 2.432,-2.446l0.002,-0.85c-0,-1.498 -1.208,-2.71 -2.698,-2.71l-5.378,-0l0,12.164l2.686,-0l-0,-5.412l1.347,0c0.745,0 1.348,0.608 1.348,1.356l0,4.056l2.685,-0l-0.003,-4.791c-0,-0.749 -0.604,-1.355 -1.349,-1.355l-1.072,-0.012Zm-1.627,-4.652c0.755,-0 1.366,0.603 1.366,1.346l0.003,1.341c0,0.758 -0.598,1.372 -1.339,1.372l-1.359,-0.005l-0,-4.054l1.329,-0Z" style="fill:#403f41;fill-rule:nonzero;"/><path d="M188.423,78.382c-0,0.751 -0.605,1.36 -1.352,1.36c-0.747,0 -1.351,-0.609 -1.351,-1.36c0,-0.75 0.604,-1.358 1.351,-1.358c0.747,0 1.352,0.608 1.352,1.358" style="fill:#403f41;fill-rule:nonzero;"/><path d="M266.3,78.382c-0,0.751 -0.606,1.36 -1.353,1.36c-0.746,0 -1.352,-0.609 -1.352,-1.36c0,-0.75 0.606,-1.358 1.352,-1.358c0.747,0 1.353,0.608 1.353,1.358" style="fill:#403f41;fill-rule:nonzero;"/><path d="M192.477,72.825l0,12.164l2.684,-0l-0,-5.412l2.696,0l-0,5.412l2.684,-0l0,-12.164l-2.684,-0l-0,5.408l-2.696,0l-0,-5.408l-2.684,-0Z" style="fill:#403f41;fill-rule:nonzero;"/><path d="M203.182,72.825l6.718,-0l-0,1.354l-4.033,-0l0,4.054l2.696,0l0,1.344l-2.696,0l0,4.055l4.033,-0l-0,1.357l-6.718,-0l-0,-12.164Z" style="fill:#403f41;fill-rule:nonzero;"/><rect x="212.582" y="72.825" width="2.691" height="12.164" style="fill:#403f41;"/><path d="M217.954,72.825l8.066,-0l-0,1.354l-5.382,9.453l5.382,-0l-0,1.357l-8.066,-0l-0,-1.357l5.38,-9.453l-5.38,-0l-0,-1.354Z" style="fill:#403f41;fill-rule:nonzero;"/><path d="M236.768,82.275c0,1.496 -1.206,2.709 -2.694,2.709l-2.665,0.003c-1.488,-0 -2.695,-1.213 -2.695,-2.709l-0.009,-9.454l2.685,-0l0.005,9.451c-0,0.752 0.603,1.361 1.348,1.361c0.744,0 1.347,-0.609 1.347,-1.361l-0.004,-9.451l2.684,-0l-0.002,9.451Z" style="fill:#403f41;fill-rule:nonzero;"/><path d="M259.619,82.291c-0,1.869 -1.455,2.709 -2.696,2.709l-2.666,-0.019c-1.488,-0 -2.695,-1.213 -2.695,-2.71l-0,-6.743c-0,-1.496 1.207,-2.709 2.696,-2.709l2.709,-0.009c1.733,-0.056 2.654,1.213 2.654,2.709l-1.348,0.008c-0,-0.752 -0.524,-1.36 -1.347,-1.36l-1.338,0.006c-0.749,-0 -1.353,0.606 -1.353,1.354l0.018,6.749c-0,0.864 0.672,1.361 1.346,1.361c0.773,0 1.348,-0.515 1.348,-1.361l-0.012,-2.699l-1.346,0l0,-1.344l4.032,0l-0.002,4.058Z" style="fill:#403f41;fill-rule:nonzero;"/><path d="M270.356,72.825l0,12.164l2.686,-0l-0,-4.725l4.032,4.725l2.697,-0l-5.381,-6.084l5.381,-6.08l-2.382,-0l-4.347,4.966l-0,-4.966l-2.686,-0Z" style="fill:#403f41;fill-rule:nonzero;"/><path d="M281.268,84.989l6.719,-0l0,-1.357l-4.034,-0l-0,-10.807l-2.685,-0l-0,12.164Z" style="fill:#403f41;fill-rule:nonzero;"/><rect x="289.343" y="72.825" width="2.692" height="12.164" style="fill:#403f41;"/><path d="M294.772,84.989l1.348,-0l-0,-7.439l4.682,4.747l4.722,-4.747l-0,7.439l2.697,-0l0,-12.164l-1.35,-0l-5.739,5.765l-5.749,-5.765l-0.611,-0l0,12.164Z" style="fill:#403f41;fill-rule:nonzero;"/><path d="M166.947,68.781l-2.788,0l2.815,-5.853l2.784,-0l-2.811,5.853Z" style="fill:#403f41;fill-rule:nonzero;"/><path d="M325.489,13.1l13.04,0l40.066,71.847l-13.032,-0l-40.074,-71.847Z" style="fill:#f5821f;fill-rule:nonzero;"/><path d="M338.53,43.578l23.284,41.369l-13.032,-0l-23.292,-41.369l13.04,0Z" style="fill:#f5821f;fill-rule:nonzero;"/><path d="M342.278,12.995l13.037,0.104l23.281,41.357l-13.033,-0l-23.285,-41.461Z" style="fill:#f5821f;fill-rule:nonzero;"/><path d="M161.89,67.854l-44.765,0l-0,-3.897l46.622,0l-1.857,3.897Z" style="fill:#f5821f;fill-rule:nonzero;"/><path d="M318.979,67.847l-148.828,0.015l1.865,-3.896l146.963,-0.016l-0,3.897Z" style="fill:#f5821f;fill-rule:nonzero;"/><path d="M377.569,18.822l-1.293,0c-0,0 0.027,-1.298 -1.272,-1.298c0,0 -1.195,0.02 -1.233,1.306l-0,1.427c-0,0 0.027,1.172 1.233,1.172c1.209,0 1.299,-1.154 1.299,-1.307l1.256,-0c-0,-0 0.176,2.607 -2.587,2.607c-2.017,-0 -2.467,-1.845 -2.467,-2.472l-0,-1.462c-0,-0 0.011,-2.57 2.496,-2.57c2.488,-0 2.568,1.954 2.568,2.597" style="fill:#403f41;fill-rule:nonzero;"/><path d="M371.447,17.298l0,4.312c0,1.217 0.951,2.181 2.095,2.181l2.959,-0c1.143,-0 2.099,-0.964 2.099,-2.181l0,-4.312c0,-1.219 -0.956,-2.179 -2.099,-2.184l-2.959,-0c-1.144,0.005 -2.095,0.965 -2.095,2.184m2.095,7.9c-1.944,0 -3.493,-1.62 -3.498,-3.588l-0,-4.312c0.005,-1.97 1.554,-3.589 3.498,-3.592l2.959,0c1.944,0.003 3.493,1.622 3.499,3.592l-0,4.312c-0.006,1.968 -1.555,3.588 -3.499,3.588l-2.959,0Z" style="fill:#403f41;fill-rule:nonzero;"/></g></svg>